<?xml version="1.0" encoding="utf-8"?>
<!-- Generator: Adobe Illustrator 16.0.0, SVG Export Plug-In . SVG Version: 6.00 Build 0)  -->
<!DOCTYPE svg PUBLIC "-//W3C//DTD SVG 1.1//EN" "http://www.w3.org/Graphics/SVG/1.1/DTD/svg11.dtd">
<svg version="1.1" id="Layer_1" xmlns="http://www.w3.org/2000/svg" xmlns:xlink="http://www.w3.org/1999/xlink" x="0px" y="0px"
	 width="234px" height="50px" viewBox="0 0 234 50" enable-background="new 0 0 234 50" xml:space="preserve">
<rect fill="#FFFFFF" width="234" height="50"/>
<rect y="39" fill="#E6E8E8" width="234" height="11"/>
<g>
	<circle fill="#9B9B9B" cx="28" cy="32" r="3.849"/>
	<circle fill="#9B9B9B" cx="16.75" cy="32" r="3.849"/>
	<circle fill="#9B9B9B" cx="39.249" cy="32" r="3.849"/>
</g>
<path display="none" fill="#9B9B9B" d="M159,23.25c0,3.176-2.574,5.75-5.75,5.75h-89.5C60.574,29,58,26.426,58,23.25V22.75
	c0-3.176,2.574-5.75,5.75-5.75h89.5c3.176,0,5.75,2.575,5.75,5.75V23.25z"/>
<g>
	<path fill="#777777" d="M17.034,14.006v1.332h-5.082V6.662h1.614v7.344H17.034z"/>
	<path fill="#777777" d="M26.154,11c0,0.636-0.105,1.225-0.315,1.768c-0.21,0.541-0.507,1.01-0.891,1.406
		c-0.384,0.396-0.846,0.705-1.386,0.928c-0.54,0.221-1.14,0.332-1.8,0.332c-0.656,0-1.254-0.111-1.794-0.332
		c-0.54-0.223-1.003-0.531-1.389-0.928c-0.386-0.396-0.685-0.865-0.897-1.406c-0.212-0.543-0.318-1.132-0.318-1.768
		c0-0.637,0.106-1.225,0.318-1.768c0.212-0.541,0.511-1.011,0.897-1.406c0.386-0.396,0.849-0.705,1.389-0.928
		c0.54-0.222,1.138-0.332,1.794-0.332c0.44,0,0.854,0.051,1.242,0.152c0.388,0.102,0.744,0.246,1.068,0.432
		c0.324,0.187,0.615,0.412,0.873,0.679c0.258,0.266,0.477,0.563,0.657,0.891c0.18,0.328,0.317,0.685,0.411,1.068
		C26.106,10.172,26.154,10.576,26.154,11z M24.503,11c0-0.477-0.064-0.903-0.192-1.281s-0.31-0.699-0.546-0.963
		c-0.236-0.264-0.523-0.466-0.861-0.605c-0.338-0.141-0.719-0.211-1.143-0.211c-0.424,0-0.805,0.07-1.143,0.211
		c-0.338,0.14-0.626,0.342-0.864,0.605c-0.238,0.264-0.421,0.585-0.549,0.963S19.014,10.523,19.014,11s0.064,0.902,0.192,1.281
		c0.128,0.377,0.311,0.697,0.549,0.959c0.238,0.263,0.526,0.464,0.864,0.604c0.338,0.141,0.719,0.21,1.143,0.21
		c0.424,0,0.805-0.069,1.143-0.21c0.338-0.14,0.625-0.341,0.861-0.604c0.236-0.262,0.418-0.582,0.546-0.959
		C24.439,11.902,24.503,11.477,24.503,11z"/>
	<path fill="#777777" d="M34.728,10.988v3.51c-0.44,0.324-0.909,0.561-1.407,0.711s-1.031,0.225-1.599,0.225
		c-0.708,0-1.349-0.109-1.923-0.33c-0.574-0.22-1.064-0.525-1.47-0.918c-0.406-0.392-0.719-0.859-0.939-1.404
		c-0.22-0.543-0.33-1.137-0.33-1.781c0-0.652,0.106-1.25,0.318-1.794s0.513-1.013,0.903-1.404S29.144,7.105,29.7,6.89
		c0.556-0.216,1.18-0.323,1.872-0.323c0.352,0,0.681,0.027,0.987,0.084c0.306,0.056,0.59,0.133,0.852,0.23
		c0.262,0.098,0.501,0.217,0.717,0.357c0.216,0.14,0.414,0.293,0.594,0.461L34.26,8.432c-0.072,0.116-0.166,0.188-0.282,0.213
		c-0.116,0.026-0.242-0.002-0.378-0.086c-0.132-0.076-0.264-0.152-0.396-0.229c-0.132-0.076-0.279-0.143-0.441-0.198
		c-0.162-0.056-0.344-0.103-0.546-0.138c-0.202-0.036-0.435-0.055-0.699-0.055c-0.428,0-0.815,0.072-1.161,0.217
		c-0.346,0.144-0.641,0.35-0.885,0.617c-0.244,0.269-0.432,0.59-0.564,0.967c-0.132,0.375-0.198,0.796-0.198,1.26
		c0,0.496,0.071,0.939,0.213,1.329s0.342,0.72,0.6,0.989c0.258,0.271,0.569,0.477,0.933,0.619c0.364,0.142,0.77,0.213,1.218,0.213
		c0.32,0,0.606-0.035,0.858-0.103s0.498-0.159,0.738-0.276v-1.572h-1.092c-0.104,0-0.185-0.028-0.243-0.086
		c-0.058-0.059-0.087-0.129-0.087-0.213v-0.912H34.728z"/>
	<path fill="#777777" d="M44.562,11c0,0.636-0.105,1.225-0.315,1.768c-0.21,0.541-0.507,1.01-0.891,1.406
		c-0.384,0.396-0.846,0.705-1.386,0.928c-0.54,0.221-1.14,0.332-1.8,0.332c-0.656,0-1.254-0.111-1.794-0.332
		c-0.54-0.223-1.003-0.531-1.389-0.928c-0.386-0.396-0.685-0.865-0.897-1.406c-0.212-0.543-0.318-1.132-0.318-1.768
		c0-0.637,0.106-1.225,0.318-1.768c0.212-0.541,0.511-1.011,0.897-1.406c0.386-0.396,0.849-0.705,1.389-0.928
		c0.54-0.222,1.138-0.332,1.794-0.332c0.44,0,0.854,0.051,1.242,0.152C41.8,6.82,42.156,6.965,42.48,7.15
		c0.324,0.187,0.615,0.412,0.873,0.679c0.258,0.266,0.477,0.563,0.657,0.891c0.18,0.328,0.317,0.685,0.411,1.068
		C44.515,10.172,44.562,10.576,44.562,11z M42.912,11c0-0.477-0.064-0.903-0.192-1.281s-0.31-0.699-0.546-0.963
		c-0.236-0.264-0.523-0.466-0.861-0.605c-0.338-0.141-0.719-0.211-1.143-0.211c-0.424,0-0.805,0.07-1.143,0.211
		c-0.338,0.14-0.626,0.342-0.864,0.605c-0.238,0.264-0.421,0.585-0.549,0.963S37.422,10.523,37.422,11s0.064,0.902,0.192,1.281
		c0.128,0.377,0.311,0.697,0.549,0.959c0.238,0.263,0.526,0.464,0.864,0.604c0.338,0.141,0.719,0.21,1.143,0.21
		c0.424,0,0.805-0.069,1.143-0.21c0.338-0.14,0.625-0.341,0.861-0.604c0.236-0.262,0.418-0.582,0.546-0.959
		C42.848,11.902,42.912,11.477,42.912,11z"/>
</g>
<rect y="39" fill="#9B9B9B" width="234" height="1"/>
<g display="none">
	<path display="inline" fill="#9B9B9B" d="M90,7.906C90,9.201,88.401,10,86.428,10H68.572C66.599,10,65,9.201,65,7.906V7.344
		C65,6.049,66.599,5,68.572,5h17.856C88.401,5,90,6.049,90,7.344V7.906z"/>
	<path display="inline" fill="#9B9B9B" d="M90,15.906C90,17.201,88.401,18,86.428,18H68.572C66.599,18,65,17.201,65,15.906v-0.563
		C65,14.049,66.599,13,68.572,13h17.856C88.401,13,90,14.049,90,15.344V15.906z"/>
	<path display="inline" fill="#9B9B9B" d="M90,24.906C90,26.201,88.401,27,86.428,27H68.572C66.599,27,65,26.201,65,24.906v-0.563
		C65,23.049,66.599,22,68.572,22h17.856C88.401,22,90,23.049,90,24.344V24.906z"/>
	<path display="inline" fill="#9B9B9B" d="M90,33.906C90,35.201,88.401,36,86.428,36H68.572C66.599,36,65,35.201,65,33.906v-0.563
		C65,32.049,66.599,31,68.572,31h17.856C88.401,31,90,32.049,90,33.344V33.906z"/>
</g>
<path fill="#9B9B9B" d="M97,7.906C97,9.201,95.4,10,93.428,10H75.572C73.599,10,72,9.201,72,7.906V7.344C72,6.049,73.599,5,75.572,5
	h17.856C95.4,5,97,6.049,97,7.344V7.906z"/>
<path fill="#9B9B9B" d="M97,15.906C97,17.201,95.4,18,93.428,18H75.572C73.599,18,72,17.201,72,15.906v-0.563
	C72,14.049,73.599,13,75.572,13h17.856C95.4,13,97,14.049,97,15.344V15.906z"/>
<path fill="#9B9B9B" d="M97,24.906C97,26.201,95.4,27,93.428,27H75.572C73.599,27,72,26.201,72,24.906v-0.563
	C72,23.049,73.599,22,75.572,22h17.856C95.4,22,97,23.049,97,24.344V24.906z"/>
<path fill="#9B9B9B" d="M41,21.906C41,23.201,39.157,24,37.185,24H19.329C17.356,24,16,23.201,16,21.906v-0.563
	C16,20.049,17.356,19,19.329,19h17.856C39.157,19,41,20.049,41,21.344V21.906z"/>
<path fill="#9B9B9B" d="M97,33.906C97,35.201,95.4,36,93.428,36H75.572C73.599,36,72,35.201,72,33.906v-0.563
	C72,32.049,73.599,31,75.572,31h17.856C95.4,31,97,32.049,97,33.344V33.906z"/>
<g>
	<path fill="#9B9B9B" d="M156,7.906c0,1.294-1.6,2.094-3.572,2.094h-17.855C132.6,10,131,9.201,131,7.906V7.344
		C131,6.049,132.6,5,134.572,5h17.855C154.4,5,156,6.049,156,7.344V7.906z"/>
	<path fill="#9B9B9B" d="M156,15.906c0,1.294-1.6,2.094-3.572,2.094h-17.855C132.6,18,131,17.201,131,15.906v-0.563
		c0-1.294,1.6-2.344,3.572-2.344h17.855C154.4,13,156,14.049,156,15.344V15.906z"/>
	<path fill="#9B9B9B" d="M156,24.906c0,1.295-1.6,2.094-3.572,2.094h-17.855C132.6,27,131,26.201,131,24.906v-0.563
		c0-1.294,1.6-2.344,3.572-2.344h17.855C154.4,22,156,23.049,156,24.344V24.906z"/>
	<path fill="#9B9B9B" d="M156,33.906c0,1.295-1.6,2.094-3.572,2.094h-17.855C132.6,36,131,35.201,131,33.906v-0.563
		c0-1.295,1.6-2.344,3.572-2.344h17.855C154.4,31,156,32.049,156,33.344V33.906z"/>
</g>
<g>
	<path fill="#9B9B9B" d="M213,7.906c0,1.294-1.6,2.094-3.572,2.094h-17.855C189.6,10,188,9.201,188,7.906V7.344
		C188,6.049,189.6,5,191.572,5h17.855C211.4,5,213,6.049,213,7.344V7.906z"/>
	<path fill="#9B9B9B" d="M213,15.906c0,1.294-1.6,2.094-3.572,2.094h-17.855C189.6,18,188,17.201,188,15.906v-0.563
		c0-1.294,1.6-2.344,3.572-2.344h17.855C211.4,13,213,14.049,213,15.344V15.906z"/>
	<path fill="#9B9B9B" d="M213,24.906c0,1.295-1.6,2.094-3.572,2.094h-17.855C189.6,27,188,26.201,188,24.906v-0.563
		c0-1.294,1.6-2.344,3.572-2.344h17.855C211.4,22,213,23.049,213,24.344V24.906z"/>
	<path fill="#9B9B9B" d="M213,33.906c0,1.295-1.6,2.094-3.572,2.094h-17.855C189.6,36,188,35.201,188,33.906v-0.563
		c0-1.295,1.6-2.344,3.572-2.344h17.855C211.4,31,213,32.049,213,33.344V33.906z"/>
</g>
</svg>
