<?xml version="1.0" encoding="utf-8"?>
<!-- Generator: Adobe Illustrator 16.0.0, SVG Export Plug-In . SVG Version: 6.00 Build 0)  -->
<!DOCTYPE svg PUBLIC "-//W3C//DTD SVG 1.1//EN" "http://www.w3.org/Graphics/SVG/1.1/DTD/svg11.dtd">
<svg version="1.1" id="Layer_1" xmlns="http://www.w3.org/2000/svg" xmlns:xlink="http://www.w3.org/1999/xlink" x="0px" y="0px"
	 width="234px" height="50px" viewBox="0 0 234 50" enable-background="new 0 0 234 50" xml:space="preserve">
<rect fill="#FFFFFF" width="234" height="50"/>
<rect y="39" fill="#E6E8E8" width="234" height="11"/>
<g>
	<circle fill="#9B9B9B" cx="22" cy="27" r="3.849"/>
	<circle fill="#9B9B9B" cx="10.75" cy="27" r="3.849"/>
	<circle fill="#9B9B9B" cx="33.249" cy="27" r="3.849"/>
</g>
<path display="none" fill="#9B9B9B" d="M159,23.25c0,3.176-2.574,5.75-5.75,5.75h-89.5C60.574,29,58,26.426,58,23.25V22.75
	c0-3.176,2.574-5.75,5.75-5.75h89.5c3.176,0,5.75,2.575,5.75,5.75V23.25z"/>
<g>
	<path fill="#777777" d="M13.048,15.006v1.332H7.966V7.662H9.58v7.344H13.048z"/>
	<path fill="#777777" d="M22.168,12c0,0.636-0.105,1.225-0.315,1.768c-0.21,0.541-0.507,1.01-0.891,1.406
		c-0.384,0.396-0.846,0.705-1.386,0.928c-0.54,0.221-1.14,0.332-1.8,0.332c-0.656,0-1.254-0.111-1.794-0.332
		c-0.54-0.223-1.003-0.531-1.389-0.928c-0.386-0.396-0.685-0.865-0.897-1.406c-0.212-0.543-0.318-1.132-0.318-1.768
		c0-0.637,0.106-1.225,0.318-1.768c0.212-0.541,0.511-1.011,0.897-1.406c0.386-0.396,0.849-0.705,1.389-0.928
		c0.54-0.222,1.138-0.332,1.794-0.332c0.44,0,0.854,0.051,1.242,0.152c0.388,0.102,0.744,0.246,1.068,0.432
		c0.324,0.187,0.615,0.412,0.873,0.679c0.258,0.266,0.477,0.563,0.657,0.891c0.18,0.328,0.317,0.685,0.411,1.068
		C22.121,11.172,22.168,11.576,22.168,12z M20.518,12c0-0.477-0.064-0.903-0.192-1.281s-0.31-0.699-0.546-0.963
		c-0.236-0.264-0.523-0.466-0.861-0.605C18.581,9.01,18.2,8.939,17.776,8.939c-0.424,0-0.805,0.07-1.143,0.211
		c-0.338,0.14-0.626,0.342-0.864,0.605c-0.238,0.264-0.421,0.585-0.549,0.963S15.028,11.523,15.028,12s0.064,0.902,0.192,1.281
		c0.128,0.377,0.311,0.697,0.549,0.959c0.238,0.263,0.526,0.464,0.864,0.604c0.338,0.141,0.719,0.21,1.143,0.21
		c0.424,0,0.805-0.069,1.143-0.21c0.338-0.14,0.625-0.341,0.861-0.604c0.236-0.262,0.418-0.582,0.546-0.959
		C20.454,12.902,20.518,12.477,20.518,12z"/>
	<path fill="#777777" d="M30.742,11.988v3.51c-0.44,0.324-0.909,0.561-1.407,0.711s-1.031,0.225-1.599,0.225
		c-0.708,0-1.349-0.109-1.923-0.33c-0.574-0.22-1.064-0.525-1.47-0.918c-0.406-0.392-0.719-0.859-0.939-1.404
		c-0.22-0.543-0.33-1.137-0.33-1.781c0-0.652,0.106-1.25,0.318-1.794s0.513-1.013,0.903-1.404s0.863-0.696,1.419-0.912
		c0.556-0.216,1.18-0.323,1.872-0.323c0.352,0,0.681,0.027,0.987,0.084c0.306,0.056,0.59,0.133,0.852,0.23
		c0.262,0.098,0.501,0.217,0.717,0.357c0.216,0.14,0.414,0.293,0.594,0.461l-0.462,0.732c-0.072,0.116-0.166,0.188-0.282,0.213
		c-0.116,0.026-0.242-0.002-0.378-0.086c-0.132-0.076-0.264-0.152-0.396-0.229c-0.132-0.076-0.279-0.143-0.441-0.198
		c-0.162-0.056-0.344-0.103-0.546-0.138c-0.202-0.036-0.435-0.055-0.699-0.055c-0.428,0-0.815,0.072-1.161,0.217
		c-0.346,0.144-0.641,0.35-0.885,0.617c-0.244,0.269-0.432,0.59-0.564,0.967c-0.132,0.375-0.198,0.796-0.198,1.26
		c0,0.496,0.071,0.939,0.213,1.329s0.342,0.72,0.6,0.989c0.258,0.271,0.569,0.477,0.933,0.619c0.364,0.142,0.77,0.213,1.218,0.213
		c0.32,0,0.606-0.035,0.858-0.103s0.498-0.159,0.738-0.276v-1.572h-1.092c-0.104,0-0.185-0.028-0.243-0.086
		c-0.058-0.059-0.087-0.129-0.087-0.213v-0.912H30.742z"/>
	<path fill="#777777" d="M40.576,12c0,0.636-0.105,1.225-0.315,1.768c-0.21,0.541-0.507,1.01-0.891,1.406
		c-0.384,0.396-0.846,0.705-1.386,0.928c-0.54,0.221-1.14,0.332-1.8,0.332c-0.656,0-1.254-0.111-1.794-0.332
		c-0.54-0.223-1.003-0.531-1.389-0.928c-0.386-0.396-0.685-0.865-0.897-1.406c-0.212-0.543-0.318-1.132-0.318-1.768
		c0-0.637,0.106-1.225,0.318-1.768c0.212-0.541,0.511-1.011,0.897-1.406c0.386-0.396,0.849-0.705,1.389-0.928
		c0.54-0.222,1.138-0.332,1.794-0.332c0.44,0,0.854,0.051,1.242,0.152c0.388,0.102,0.744,0.246,1.068,0.432
		c0.324,0.187,0.615,0.412,0.873,0.679c0.258,0.266,0.477,0.563,0.657,0.891c0.18,0.328,0.317,0.685,0.411,1.068
		C40.529,11.172,40.576,11.576,40.576,12z M38.926,12c0-0.477-0.064-0.903-0.192-1.281s-0.31-0.699-0.546-0.963
		c-0.236-0.264-0.523-0.466-0.861-0.605c-0.338-0.141-0.719-0.211-1.143-0.211c-0.424,0-0.805,0.07-1.143,0.211
		c-0.338,0.14-0.626,0.342-0.864,0.605c-0.238,0.264-0.421,0.585-0.549,0.963S33.436,11.523,33.436,12s0.064,0.902,0.192,1.281
		c0.128,0.377,0.311,0.697,0.549,0.959c0.238,0.263,0.526,0.464,0.864,0.604c0.338,0.141,0.719,0.21,1.143,0.21
		c0.424,0,0.805-0.069,1.143-0.21c0.338-0.14,0.625-0.341,0.861-0.604c0.236-0.262,0.418-0.582,0.546-0.959
		C38.862,12.902,38.926,12.477,38.926,12z"/>
</g>
<rect y="39" fill="#9B9B9B" width="234" height="1"/>
<g>
	<path fill="#9B9B9B" d="M90,7.906C90,9.201,88.401,10,86.428,10H68.572C66.599,10,65,9.201,65,7.906V7.344
		C65,6.049,66.599,5,68.572,5h17.856C88.401,5,90,6.049,90,7.344V7.906z"/>
	<path fill="#9B9B9B" d="M134,7.906c0,1.294-1.6,2.094-3.572,2.094h-17.856C110.599,10,109,9.201,109,7.906V7.344
		C109,6.049,110.599,5,112.572,5h17.856C132.4,5,134,6.049,134,7.344V7.906z"/>
	<path fill="#9B9B9B" d="M181,7.906c0,1.294-1.6,2.094-3.572,2.094h-17.855C157.6,10,156,9.201,156,7.906V7.344
		C156,6.049,157.6,5,159.572,5h17.855C179.4,5,181,6.049,181,7.344V7.906z"/>
	<path fill="#9B9B9B" d="M226,7.906c0,1.294-1.6,2.094-3.572,2.094h-17.855C202.6,10,201,9.201,201,7.906V7.344
		C201,6.049,202.6,5,204.572,5h17.855C224.4,5,226,6.049,226,7.344V7.906z"/>
</g>
<g>
	<path fill="#9B9B9B" d="M90,15.906C90,17.201,88.401,18,86.428,18H68.572C66.599,18,65,17.201,65,15.906v-0.563
		C65,14.049,66.599,13,68.572,13h17.856C88.401,13,90,14.049,90,15.344V15.906z"/>
	<path fill="#9B9B9B" d="M134,15.906c0,1.294-1.6,2.094-3.572,2.094h-17.856c-1.973,0-3.572-0.799-3.572-2.094v-0.563
		c0-1.294,1.599-2.344,3.572-2.344h17.856C132.4,13,134,14.049,134,15.344V15.906z"/>
	<path fill="#9B9B9B" d="M181,15.906c0,1.294-1.6,2.094-3.572,2.094h-17.855C157.6,18,156,17.201,156,15.906v-0.563
		c0-1.294,1.6-2.344,3.572-2.344h17.855C179.4,13,181,14.049,181,15.344V15.906z"/>
	<path fill="#9B9B9B" d="M226,15.906c0,1.294-1.6,2.094-3.572,2.094h-17.855C202.6,18,201,17.201,201,15.906v-0.563
		c0-1.294,1.6-2.344,3.572-2.344h17.855C224.4,13,226,14.049,226,15.344V15.906z"/>
</g>
<g>
	<path fill="#9B9B9B" d="M90,24.906C90,26.201,88.401,27,86.428,27H68.572C66.599,27,65,26.201,65,24.906v-0.563
		C65,23.049,66.599,22,68.572,22h17.856C88.401,22,90,23.049,90,24.344V24.906z"/>
	<path fill="#9B9B9B" d="M134,24.906c0,1.295-1.6,2.094-3.572,2.094h-17.856c-1.973,0-3.572-0.799-3.572-2.094v-0.563
		c0-1.294,1.599-2.344,3.572-2.344h17.856C132.4,22,134,23.049,134,24.344V24.906z"/>
	<path fill="#9B9B9B" d="M181,24.906c0,1.295-1.6,2.094-3.572,2.094h-17.855C157.6,27,156,26.201,156,24.906v-0.563
		c0-1.294,1.6-2.344,3.572-2.344h17.855C179.4,22,181,23.049,181,24.344V24.906z"/>
	<path fill="#9B9B9B" d="M226,24.906c0,1.295-1.6,2.094-3.572,2.094h-17.855C202.6,27,201,26.201,201,24.906v-0.563
		c0-1.294,1.6-2.344,3.572-2.344h17.855C224.4,22,226,23.049,226,24.344V24.906z"/>
</g>
<g>
	<path fill="#9B9B9B" d="M90,33.906C90,35.201,88.401,36,86.428,36H68.572C66.599,36,65,35.201,65,33.906v-0.563
		C65,32.049,66.599,31,68.572,31h17.856C88.401,31,90,32.049,90,33.344V33.906z"/>
	<path fill="#9B9B9B" d="M134,33.906c0,1.295-1.6,2.094-3.572,2.094h-17.856c-1.973,0-3.572-0.799-3.572-2.094v-0.563
		c0-1.295,1.599-2.344,3.572-2.344h17.856C132.4,31,134,32.049,134,33.344V33.906z"/>
	<path fill="#9B9B9B" d="M181,33.906c0,1.295-1.6,2.094-3.572,2.094h-17.855C157.6,36,156,35.201,156,33.906v-0.563
		c0-1.295,1.6-2.344,3.572-2.344h17.855C179.4,31,181,32.049,181,33.344V33.906z"/>
	<path fill="#9B9B9B" d="M226,33.906c0,1.295-1.6,2.094-3.572,2.094h-17.855C202.6,36,201,35.201,201,33.906v-0.563
		c0-1.295,1.6-2.344,3.572-2.344h17.855C224.4,31,226,32.049,226,33.344V33.906z"/>
</g>
</svg>
