<?xml version="1.0" encoding="utf-8"?>
<!-- Generator: Adobe Illustrator 16.0.0, SVG Export Plug-In . SVG Version: 6.00 Build 0)  -->
<!DOCTYPE svg PUBLIC "-//W3C//DTD SVG 1.1//EN" "http://www.w3.org/Graphics/SVG/1.1/DTD/svg11.dtd">
<svg version="1.1" id="Layer_1" xmlns="http://www.w3.org/2000/svg" xmlns:xlink="http://www.w3.org/1999/xlink" x="0px" y="0px"
	 width="234px" height="50px" viewBox="0 0 234 50" enable-background="new 0 0 234 50" xml:space="preserve">
<rect fill="#FFFFFF" width="234" height="50"/>
<rect y="39" fill="#E6E8E8" width="234" height="11"/>
<g>
	<circle fill="#9B9B9B" cx="202" cy="18" r="3.849"/>
	<circle fill="#9B9B9B" cx="190.75" cy="18" r="3.849"/>
	<circle fill="#9B9B9B" cx="213.249" cy="18" r="3.849"/>
</g>
<path display="none" fill="#9B9B9B" d="M159,23.25c0,3.176-2.574,5.75-5.75,5.75h-89.5C60.574,29,58,26.426,58,23.25V22.75
	c0-3.176,2.574-5.75,5.75-5.75h89.5c3.176,0,5.75,2.575,5.75,5.75V23.25z"/>
<g display="none">
	<path display="inline" fill="#777777" d="M193.033,14.006v1.332h-5.082V6.662h1.615v7.344H193.033z"/>
	<path display="inline" fill="#777777" d="M202.154,11c0,0.636-0.105,1.225-0.316,1.768c-0.209,0.541-0.506,1.01-0.891,1.406
		c-0.384,0.396-0.846,0.705-1.386,0.928c-0.54,0.221-1.14,0.332-1.8,0.332c-0.656,0-1.254-0.111-1.794-0.332
		c-0.54-0.223-1.003-0.531-1.39-0.928c-0.386-0.396-0.685-0.865-0.896-1.406c-0.212-0.543-0.318-1.132-0.318-1.768
		c0-0.637,0.106-1.225,0.318-1.768c0.212-0.541,0.511-1.011,0.896-1.406c0.387-0.396,0.85-0.705,1.39-0.928
		c0.54-0.222,1.138-0.332,1.794-0.332c0.439,0,0.854,0.051,1.242,0.152c0.388,0.102,0.744,0.246,1.068,0.432
		c0.323,0.187,0.614,0.412,0.872,0.679c0.259,0.266,0.478,0.563,0.657,0.891c0.18,0.328,0.316,0.685,0.411,1.068
		C202.106,10.172,202.154,10.576,202.154,11z M200.504,11c0-0.477-0.064-0.903-0.192-1.281s-0.31-0.699-0.546-0.963
		s-0.523-0.466-0.861-0.605c-0.338-0.141-0.719-0.211-1.143-0.211s-0.805,0.07-1.143,0.211c-0.339,0.14-0.627,0.342-0.865,0.605
		c-0.237,0.264-0.42,0.585-0.549,0.963c-0.127,0.378-0.191,0.805-0.191,1.281s0.064,0.902,0.191,1.281
		c0.129,0.377,0.312,0.697,0.549,0.959c0.238,0.263,0.526,0.464,0.865,0.604c0.338,0.141,0.719,0.21,1.143,0.21
		s0.805-0.069,1.143-0.21c0.338-0.14,0.625-0.341,0.861-0.604c0.236-0.262,0.418-0.582,0.546-0.959
		C200.439,11.902,200.504,11.477,200.504,11z"/>
	<path display="inline" fill="#777777" d="M210.729,10.988v3.51c-0.441,0.324-0.91,0.561-1.408,0.711s-1.03,0.225-1.599,0.225
		c-0.708,0-1.349-0.109-1.923-0.33c-0.574-0.22-1.064-0.525-1.47-0.918c-0.406-0.392-0.72-0.859-0.939-1.404
		c-0.22-0.543-0.329-1.137-0.329-1.781c0-0.652,0.105-1.25,0.317-1.794s0.513-1.013,0.903-1.404c0.39-0.392,0.863-0.696,1.418-0.912
		c0.557-0.216,1.181-0.323,1.873-0.323c0.352,0,0.681,0.027,0.986,0.084c0.307,0.056,0.59,0.133,0.852,0.23
		c0.263,0.098,0.502,0.217,0.718,0.357c0.216,0.14,0.414,0.293,0.594,0.461l-0.462,0.732c-0.072,0.116-0.166,0.188-0.281,0.213
		c-0.117,0.026-0.242-0.002-0.379-0.086c-0.132-0.076-0.264-0.152-0.396-0.229s-0.279-0.143-0.441-0.198
		c-0.161-0.056-0.344-0.103-0.546-0.138c-0.202-0.036-0.436-0.055-0.699-0.055c-0.428,0-0.814,0.072-1.16,0.217
		c-0.347,0.144-0.642,0.35-0.886,0.617c-0.243,0.269-0.432,0.59-0.563,0.967c-0.133,0.375-0.198,0.796-0.198,1.26
		c0,0.496,0.071,0.939,0.213,1.329s0.342,0.72,0.601,0.989c0.258,0.271,0.568,0.477,0.933,0.619
		c0.364,0.142,0.771,0.213,1.218,0.213c0.32,0,0.605-0.035,0.857-0.103s0.498-0.159,0.738-0.276v-1.572h-1.092
		c-0.104,0-0.186-0.028-0.242-0.086c-0.059-0.059-0.088-0.129-0.088-0.213v-0.912H210.729z"/>
	<path display="inline" fill="#777777" d="M220.563,11c0,0.636-0.105,1.225-0.316,1.768c-0.209,0.541-0.506,1.01-0.891,1.406
		c-0.384,0.396-0.846,0.705-1.386,0.928c-0.54,0.221-1.14,0.332-1.8,0.332c-0.656,0-1.254-0.111-1.794-0.332
		c-0.54-0.223-1.003-0.531-1.39-0.928c-0.386-0.396-0.685-0.865-0.896-1.406c-0.212-0.543-0.318-1.132-0.318-1.768
		c0-0.637,0.106-1.225,0.318-1.768c0.212-0.541,0.511-1.011,0.896-1.406c0.387-0.396,0.85-0.705,1.39-0.928
		c0.54-0.222,1.138-0.332,1.794-0.332c0.439,0,0.854,0.051,1.242,0.152c0.388,0.102,0.744,0.246,1.068,0.432
		c0.323,0.187,0.614,0.412,0.872,0.679c0.259,0.266,0.478,0.563,0.657,0.891c0.18,0.328,0.316,0.685,0.411,1.068
		C220.515,10.172,220.563,10.576,220.563,11z M218.912,11c0-0.477-0.064-0.903-0.192-1.281s-0.31-0.699-0.546-0.963
		s-0.523-0.466-0.861-0.605c-0.338-0.141-0.719-0.211-1.143-0.211s-0.805,0.07-1.143,0.211c-0.339,0.14-0.627,0.342-0.865,0.605
		c-0.237,0.264-0.42,0.585-0.549,0.963c-0.127,0.378-0.191,0.805-0.191,1.281s0.064,0.902,0.191,1.281
		c0.129,0.377,0.312,0.697,0.549,0.959c0.238,0.263,0.526,0.464,0.865,0.604c0.338,0.141,0.719,0.21,1.143,0.21
		s0.805-0.069,1.143-0.21c0.338-0.14,0.625-0.341,0.861-0.604c0.236-0.262,0.418-0.582,0.546-0.959
		C218.848,11.902,218.912,11.477,218.912,11z"/>
</g>
<rect y="39" fill="#9B9B9B" width="234" height="1"/>
<g display="none">
	<path display="inline" fill="#9B9B9B" d="M90,7.906C90,9.201,88.401,10,86.428,10H68.572C66.599,10,65,9.201,65,7.906V7.344
		C65,6.049,66.599,5,68.572,5h17.856C88.401,5,90,6.049,90,7.344V7.906z"/>
	<path display="inline" fill="#9B9B9B" d="M90,15.906C90,17.201,88.401,18,86.428,18H68.572C66.599,18,65,17.201,65,15.906v-0.563
		C65,14.049,66.599,13,68.572,13h17.856C88.401,13,90,14.049,90,15.344V15.906z"/>
	<path display="inline" fill="#9B9B9B" d="M90,24.906C90,26.201,88.401,27,86.428,27H68.572C66.599,27,65,26.201,65,24.906v-0.563
		C65,23.049,66.599,22,68.572,22h17.856C88.401,22,90,23.049,90,24.344V24.906z"/>
	<path display="inline" fill="#9B9B9B" d="M90,33.906C90,35.201,88.401,36,86.428,36H68.572C66.599,36,65,35.201,65,33.906v-0.563
		C65,32.049,66.599,31,68.572,31h17.856C88.401,31,90,32.049,90,33.344V33.906z"/>
</g>
<path fill="#9B9B9B" d="M97,7.906C97,9.201,95.4,10,93.428,10H75.572C73.599,10,72,9.201,72,7.906V7.344C72,6.049,73.599,5,75.572,5
	h17.856C95.4,5,97,6.049,97,7.344V7.906z"/>
<path fill="#9B9B9B" d="M97,15.906C97,17.201,95.4,18,93.428,18H75.572C73.599,18,72,17.201,72,15.906v-0.563
	C72,14.049,73.599,13,75.572,13h17.856C95.4,13,97,14.049,97,15.344V15.906z"/>
<path fill="#9B9B9B" d="M97,24.906C97,26.201,95.4,27,93.428,27H75.572C73.599,27,72,26.201,72,24.906v-0.563
	C72,23.049,73.599,22,75.572,22h17.856C95.4,22,97,23.049,97,24.344V24.906z"/>
<path fill="#9B9B9B" d="M212,7.906c0,1.295-1.843,2.094-3.815,2.094h-17.856C188.355,10,187,9.201,187,7.906V7.344
	C187,6.049,188.355,5,190.328,5h17.856C210.157,5,212,6.049,212,7.344V7.906z"/>
<path fill="#9B9B9B" d="M97,33.906C97,35.201,95.4,36,93.428,36H75.572C73.599,36,72,35.201,72,33.906v-0.563
	C72,32.049,73.599,31,75.572,31h17.856C95.4,31,97,32.049,97,33.344V33.906z"/>
<g>
	<path fill="#9B9B9B" d="M156,7.906c0,1.294-1.6,2.094-3.572,2.094h-17.855C132.6,10,131,9.201,131,7.906V7.344
		C131,6.049,132.6,5,134.572,5h17.855C154.4,5,156,6.049,156,7.344V7.906z"/>
	<path fill="#9B9B9B" d="M156,15.906c0,1.294-1.6,2.094-3.572,2.094h-17.855C132.6,18,131,17.201,131,15.906v-0.563
		c0-1.294,1.6-2.344,3.572-2.344h17.855C154.4,13,156,14.049,156,15.344V15.906z"/>
	<path fill="#9B9B9B" d="M156,24.906c0,1.295-1.6,2.094-3.572,2.094h-17.855C132.6,27,131,26.201,131,24.906v-0.563
		c0-1.294,1.6-2.344,3.572-2.344h17.855C154.4,22,156,23.049,156,24.344V24.906z"/>
	<path fill="#9B9B9B" d="M156,33.906c0,1.295-1.6,2.094-3.572,2.094h-17.855C132.6,36,131,35.201,131,33.906v-0.563
		c0-1.295,1.6-2.344,3.572-2.344h17.855C154.4,31,156,32.049,156,33.344V33.906z"/>
</g>
<g>
	<path fill="#9B9B9B" d="M40,7.906C40,9.201,38.4,10,36.428,10H18.572C16.6,10,15,9.201,15,7.906V7.344C15,6.049,16.6,5,18.572,5
		h17.855C38.4,5,40,6.049,40,7.344V7.906z"/>
	<path fill="#9B9B9B" d="M40,15.906C40,17.201,38.4,18,36.428,18H18.572C16.6,18,15,17.201,15,15.906v-0.563
		C15,14.049,16.6,13,18.572,13h17.855C38.4,13,40,14.049,40,15.344V15.906z"/>
	<path fill="#9B9B9B" d="M40,24.906C40,26.201,38.4,27,36.428,27H18.572C16.6,27,15,26.201,15,24.906v-0.563
		C15,23.049,16.6,22,18.572,22h17.855C38.4,22,40,23.049,40,24.344V24.906z"/>
	<path fill="#9B9B9B" d="M40,33.906C40,35.201,38.4,36,36.428,36H18.572C16.6,36,15,35.201,15,33.906v-0.563
		C15,32.049,16.6,31,18.572,31h17.855C38.4,31,40,32.049,40,33.344V33.906z"/>
</g>
</svg>
