<?xml version="1.0" encoding="utf-8"?>
<!-- Generator: Adobe Illustrator 16.0.0, SVG Export Plug-In . SVG Version: 6.00 Build 0)  -->
<!DOCTYPE svg PUBLIC "-//W3C//DTD SVG 1.1//EN" "http://www.w3.org/Graphics/SVG/1.1/DTD/svg11.dtd">
<svg version="1.1" id="Layer_1" xmlns="http://www.w3.org/2000/svg" xmlns:xlink="http://www.w3.org/1999/xlink" x="0px" y="0px"
	 width="234px" height="50px" viewBox="0 0 234 50" enable-background="new 0 0 234 50" xml:space="preserve">
<rect fill="#FFFFFF" width="234" height="50"/>
<rect y="40" fill="#E6E8E8" width="234" height="10"/>
<g display="none">
	<circle display="inline" fill="#9B9B9B" cx="202" cy="18" r="3.849"/>
	<circle display="inline" fill="#9B9B9B" cx="190.75" cy="18" r="3.849"/>
	<circle display="inline" fill="#9B9B9B" cx="213.249" cy="18" r="3.849"/>
</g>
<g>
	<circle fill="#9B9B9B" cx="21" cy="22" r="2.698"/>
	<circle fill="#9B9B9B" cx="13.115" cy="22" r="2.697"/>
	<circle fill="#9B9B9B" cx="28.884" cy="22" r="2.698"/>
</g>
<g>
	<path fill="#777777" d="M14.776,13.006v1.332H9.694V5.662h1.615v7.344H14.776z"/>
	<path fill="#777777" d="M23.897,10c0,0.636-0.105,1.225-0.316,1.768c-0.209,0.541-0.506,1.01-0.891,1.406
		c-0.383,0.396-0.846,0.705-1.385,0.928c-0.541,0.221-1.141,0.332-1.801,0.332c-0.656,0-1.254-0.111-1.793-0.332
		c-0.541-0.223-1.004-0.531-1.391-0.928c-0.385-0.396-0.684-0.865-0.896-1.406c-0.211-0.543-0.318-1.132-0.318-1.768
		c0-0.637,0.107-1.225,0.318-1.768c0.213-0.541,0.512-1.011,0.896-1.406c0.387-0.396,0.85-0.705,1.391-0.928
		c0.539-0.222,1.137-0.332,1.793-0.332c0.439,0,0.854,0.051,1.242,0.152s0.744,0.246,1.068,0.432
		c0.324,0.187,0.615,0.412,0.873,0.679c0.258,0.266,0.477,0.563,0.656,0.891c0.18,0.328,0.316,0.685,0.412,1.068
		C23.85,9.172,23.897,9.576,23.897,10z M22.247,10c0-0.477-0.064-0.903-0.191-1.281c-0.129-0.378-0.311-0.699-0.547-0.963
		S20.985,7.29,20.647,7.15c-0.338-0.141-0.719-0.211-1.143-0.211S18.7,7.01,18.362,7.15c-0.338,0.14-0.627,0.342-0.865,0.605
		c-0.236,0.264-0.42,0.585-0.549,0.963C16.821,9.097,16.756,9.523,16.756,10s0.064,0.902,0.191,1.281
		c0.129,0.377,0.313,0.697,0.549,0.959c0.238,0.263,0.527,0.464,0.865,0.604c0.338,0.141,0.719,0.21,1.143,0.21
		s0.805-0.069,1.143-0.21c0.338-0.14,0.625-0.341,0.861-0.604c0.236-0.262,0.418-0.582,0.547-0.959
		C22.182,10.902,22.247,10.477,22.247,10z"/>
	<path fill="#777777" d="M32.471,9.988v3.51c-0.441,0.324-0.91,0.561-1.408,0.711s-1.029,0.225-1.598,0.225
		c-0.709,0-1.35-0.109-1.924-0.33c-0.574-0.22-1.064-0.525-1.469-0.918c-0.406-0.392-0.721-0.859-0.939-1.404
		c-0.221-0.543-0.33-1.137-0.33-1.781c0-0.652,0.105-1.25,0.318-1.794c0.211-0.544,0.512-1.013,0.902-1.404s0.863-0.696,1.418-0.912
		c0.557-0.216,1.182-0.323,1.873-0.323c0.352,0,0.682,0.027,0.986,0.084c0.307,0.056,0.59,0.133,0.852,0.23
		c0.264,0.098,0.502,0.217,0.719,0.357c0.215,0.14,0.414,0.293,0.594,0.461l-0.463,0.732c-0.072,0.116-0.166,0.188-0.281,0.213
		c-0.117,0.026-0.242-0.002-0.379-0.086c-0.131-0.076-0.264-0.152-0.395-0.229c-0.133-0.076-0.279-0.143-0.441-0.198
		s-0.344-0.103-0.547-0.138c-0.201-0.036-0.436-0.055-0.699-0.055c-0.428,0-0.814,0.072-1.16,0.217
		c-0.346,0.144-0.641,0.35-0.885,0.617c-0.244,0.269-0.432,0.59-0.564,0.967c-0.133,0.375-0.197,0.796-0.197,1.26
		c0,0.496,0.07,0.939,0.213,1.329c0.141,0.39,0.342,0.72,0.6,0.989c0.258,0.271,0.568,0.477,0.934,0.619
		c0.363,0.142,0.77,0.213,1.217,0.213c0.32,0,0.605-0.035,0.857-0.103s0.498-0.159,0.738-0.276v-1.572H29.92
		c-0.104,0-0.186-0.028-0.242-0.086c-0.059-0.059-0.088-0.129-0.088-0.213V9.988H32.471z"/>
	<path fill="#777777" d="M42.305,10c0,0.636-0.105,1.225-0.316,1.768c-0.209,0.541-0.506,1.01-0.891,1.406
		c-0.383,0.396-0.846,0.705-1.385,0.928c-0.541,0.221-1.141,0.332-1.801,0.332c-0.656,0-1.254-0.111-1.793-0.332
		c-0.541-0.223-1.004-0.531-1.391-0.928c-0.385-0.396-0.684-0.865-0.896-1.406c-0.211-0.543-0.318-1.132-0.318-1.768
		c0-0.637,0.107-1.225,0.318-1.768c0.213-0.541,0.512-1.011,0.896-1.406c0.387-0.396,0.85-0.705,1.391-0.928
		c0.539-0.222,1.137-0.332,1.793-0.332c0.439,0,0.854,0.051,1.242,0.152s0.744,0.246,1.068,0.432
		c0.324,0.187,0.615,0.412,0.873,0.679c0.258,0.266,0.477,0.563,0.656,0.891c0.18,0.328,0.316,0.685,0.412,1.068
		C42.258,9.172,42.305,9.576,42.305,10z M40.655,10c0-0.477-0.064-0.903-0.191-1.281c-0.129-0.378-0.311-0.699-0.547-0.963
		S39.393,7.29,39.055,7.15c-0.338-0.141-0.719-0.211-1.143-0.211S37.108,7.01,36.77,7.15c-0.338,0.14-0.627,0.342-0.865,0.605
		c-0.236,0.264-0.42,0.585-0.549,0.963C35.229,9.097,35.165,9.523,35.165,10s0.064,0.902,0.191,1.281
		c0.129,0.377,0.313,0.697,0.549,0.959c0.238,0.263,0.527,0.464,0.865,0.604c0.338,0.141,0.719,0.21,1.143,0.21
		s0.805-0.069,1.143-0.21c0.338-0.14,0.625-0.341,0.861-0.604c0.236-0.262,0.418-0.582,0.547-0.959
		C40.59,10.902,40.655,10.477,40.655,10z"/>
</g>
<rect y="40" fill="#9B9B9B" width="234" height="1"/>
<rect y="29" fill="#9B9B9B" width="234" height="1"/>
<path fill="#9B9B9B" d="M95,7.906C95,9.201,93.401,10,91.428,10H73.572C71.599,10,70,9.201,70,7.906V7.344
	C70,6.049,71.599,5,73.572,5h17.856C93.401,5,95,6.049,95,7.344V7.906z"/>
<path fill="#9B9B9B" d="M95,15.906C95,17.201,93.401,18,91.428,18H73.572C71.599,18,70,17.201,70,15.906v-0.563
	C70,14.049,71.599,13,73.572,13h17.856C93.401,13,95,14.049,95,15.344V15.906z"/>
<path fill="#9B9B9B" d="M95,24.906C95,26.201,93.401,27,91.428,27H73.572C71.599,27,70,26.201,70,24.906v-0.563
	C70,23.049,71.599,22,73.572,22h17.856C93.401,22,95,23.049,95,24.344V24.906z"/>
<path display="none" fill="#9B9B9B" d="M95,33.906C95,35.201,93.401,36,91.428,36H73.572C71.599,36,70,35.201,70,33.906v-0.563
	C70,32.049,71.599,31,73.572,31h17.856C93.401,31,95,32.049,95,33.344V33.906z"/>
<path display="none" fill="#9B9B9B" d="M212,7.906c0,1.295-1.843,2.094-3.815,2.094h-17.856C188.355,10,187,9.201,187,7.906V7.344
	C187,6.049,188.355,5,190.328,5h17.856C210.157,5,212,6.049,212,7.344V7.906z"/>
<g display="none">
	<path display="inline" fill="#9B9B9B" d="M200,21.906c0,1.295-0.689,2.094-1.834,2.094h-10.357c-1.145,0-1.809-0.799-1.809-2.094
		v-0.563c0-1.294,0.664-2.344,1.809-2.344h10.357c1.145,0,1.834,1.049,1.834,2.344V21.906z"/>
	<path display="inline" fill="#9B9B9B" d="M217,21.906c0,1.295-0.689,2.094-1.834,2.094h-10.357c-1.145,0-1.809-0.799-1.809-2.094
		v-0.563c0-1.294,0.664-2.344,1.809-2.344h10.357c1.145,0,1.834,1.049,1.834,2.344V21.906z"/>
</g>
<path fill="#9B9B9B" d="M46,35.313C46,36.788,43.207,38,40.485,38H15.843C13.121,38,11,36.788,11,35.313v-0.642
	C11,33.195,13.121,32,15.843,32h24.642C43.207,32,46,33.195,46,34.671V35.313z"/>
<path fill="#9B9B9B" d="M138,35.313c0,1.476-2.793,2.688-5.516,2.688h-24.642c-2.722,0-4.843-1.212-4.843-2.688v-0.642
	c0-1.476,2.121-2.671,4.843-2.671h24.642c2.723,0,5.516,1.195,5.516,2.671V35.313z"/>
<path fill="#9B9B9B" d="M222,35.313c0,1.476-2.793,2.688-5.516,2.688h-24.642c-2.722,0-4.843-1.212-4.843-2.688v-0.642
	c0-1.476,2.121-2.671,4.843-2.671h24.642c2.723,0,5.516,1.195,5.516,2.671V35.313z"/>
<path display="none" fill="#9B9B9B" d="M35,25.313C35,26.788,33.157,28,31.185,28H13.328C11.355,28,10,26.788,10,25.313v-0.642
	C10,23.195,11.355,22,13.328,22h17.856C33.157,22,35,23.195,35,24.671V25.313z"/>
<path fill="#9B9B9B" d="M136,7.906c0,1.294-1.6,2.094-3.572,2.094h-17.856C112.599,10,111,9.201,111,7.906V7.344
	C111,6.049,112.599,5,114.572,5h17.856C134.4,5,136,6.049,136,7.344V7.906z"/>
<path fill="#9B9B9B" d="M136,15.906c0,1.294-1.6,2.094-3.572,2.094h-17.856c-1.973,0-3.572-0.799-3.572-2.094v-0.563
	c0-1.294,1.599-2.344,3.572-2.344h17.856C134.4,13,136,14.049,136,15.344V15.906z"/>
<path fill="#9B9B9B" d="M136,24.906c0,1.295-1.6,2.094-3.572,2.094h-17.856c-1.973,0-3.572-0.799-3.572-2.094v-0.563
	c0-1.294,1.599-2.344,3.572-2.344h17.856C134.4,22,136,23.049,136,24.344V24.906z"/>
<path display="none" fill="#9B9B9B" d="M136,33.906c0,1.295-1.6,2.094-3.572,2.094h-17.856c-1.973,0-3.572-0.799-3.572-2.094v-0.563
	c0-1.295,1.599-2.344,3.572-2.344h17.856C134.4,31,136,32.049,136,33.344V33.906z"/>
<path fill="#9B9B9B" d="M177,7.906c0,1.294-1.6,2.094-3.572,2.094h-17.855C153.6,10,152,9.201,152,7.906V7.344
	C152,6.049,153.6,5,155.572,5h17.855C175.4,5,177,6.049,177,7.344V7.906z"/>
<path fill="#9B9B9B" d="M177,15.906c0,1.294-1.6,2.094-3.572,2.094h-17.855C153.6,18,152,17.201,152,15.906v-0.563
	c0-1.294,1.6-2.344,3.572-2.344h17.855C175.4,13,177,14.049,177,15.344V15.906z"/>
<path fill="#9B9B9B" d="M177,24.906c0,1.295-1.6,2.094-3.572,2.094h-17.855C153.6,27,152,26.201,152,24.906v-0.563
	c0-1.294,1.6-2.344,3.572-2.344h17.855C175.4,22,177,23.049,177,24.344V24.906z"/>
<path display="none" fill="#9B9B9B" d="M177,33.906c0,1.295-1.6,2.094-3.572,2.094h-17.855C153.6,36,152,35.201,152,33.906v-0.563
	c0-1.295,1.6-2.344,3.572-2.344h17.855C175.4,31,177,32.049,177,33.344V33.906z"/>
<path fill="#9B9B9B" d="M217,7.906c0,1.294-1.6,2.094-3.572,2.094h-17.855C193.6,10,192,9.201,192,7.906V7.344
	C192,6.049,193.6,5,195.572,5h17.855C215.4,5,217,6.049,217,7.344V7.906z"/>
<path fill="#9B9B9B" d="M217,15.906c0,1.294-1.6,2.094-3.572,2.094h-17.855C193.6,18,192,17.201,192,15.906v-0.563
	c0-1.294,1.6-2.344,3.572-2.344h17.855C215.4,13,217,14.049,217,15.344V15.906z"/>
<path fill="#9B9B9B" d="M217,24.906c0,1.295-1.6,2.094-3.572,2.094h-17.855C193.6,27,192,26.201,192,24.906v-0.563
	c0-1.294,1.6-2.344,3.572-2.344h17.855C215.4,22,217,23.049,217,24.344V24.906z"/>
<path display="none" fill="#9B9B9B" d="M217,33.906c0,1.295-1.6,2.094-3.572,2.094h-17.855C193.6,36,192,35.201,192,33.906v-0.563
	c0-1.295,1.6-2.344,3.572-2.344h17.855C215.4,31,217,32.049,217,33.344V33.906z"/>
<g display="none">
	<path display="inline" fill="#9B9B9B" d="M212,7.906c0,1.294-1.6,2.094-3.572,2.094h-17.855C188.6,10,187,9.201,187,7.906V7.344
		C187,6.049,188.6,5,190.572,5h17.855C210.4,5,212,6.049,212,7.344V7.906z"/>
	<path display="inline" fill="#9B9B9B" d="M212,15.906c0,1.294-1.6,2.094-3.572,2.094h-17.855C188.6,18,187,17.201,187,15.906
		v-0.563c0-1.294,1.6-2.344,3.572-2.344h17.855C210.4,13,212,14.049,212,15.344V15.906z"/>
	<path display="inline" fill="#9B9B9B" d="M212,24.906c0,1.295-1.6,2.094-3.572,2.094h-17.855C188.6,27,187,26.201,187,24.906
		v-0.563c0-1.294,1.6-2.344,3.572-2.344h17.855C210.4,22,212,23.049,212,24.344V24.906z"/>
	<path display="inline" fill="#9B9B9B" d="M212,33.906c0,1.295-1.6,2.094-3.572,2.094h-17.855C188.6,36,187,35.201,187,33.906
		v-0.563c0-1.295,1.6-2.344,3.572-2.344h17.855C210.4,31,212,32.049,212,33.344V33.906z"/>
</g>
<g display="none">
	<path display="inline" fill="#9B9B9B" d="M40,7.906C40,9.201,38.4,10,36.428,10H18.572C16.6,10,15,9.201,15,7.906V7.344
		C15,6.049,16.6,5,18.572,5h17.855C38.4,5,40,6.049,40,7.344V7.906z"/>
	<path display="inline" fill="#9B9B9B" d="M40,15.906C40,17.201,38.4,18,36.428,18H18.572C16.6,18,15,17.201,15,15.906v-0.563
		C15,14.049,16.6,13,18.572,13h17.855C38.4,13,40,14.049,40,15.344V15.906z"/>
	<path display="inline" fill="#9B9B9B" d="M40,24.906C40,26.201,38.4,27,36.428,27H18.572C16.6,27,15,26.201,15,24.906v-0.563
		C15,23.049,16.6,22,18.572,22h17.855C38.4,22,40,23.049,40,24.344V24.906z"/>
	<path display="inline" fill="#9B9B9B" d="M40,33.906C40,35.201,38.4,36,36.428,36H18.572C16.6,36,15,35.201,15,33.906v-0.563
		C15,32.049,16.6,31,18.572,31h17.855C38.4,31,40,32.049,40,33.344V33.906z"/>
</g>
</svg>
