<?xml version="1.0" encoding="utf-8"?>
<!-- Generator: Adobe Illustrator 16.0.0, SVG Export Plug-In . SVG Version: 6.00 Build 0)  -->
<!DOCTYPE svg PUBLIC "-//W3C//DTD SVG 1.1//EN" "http://www.w3.org/Graphics/SVG/1.1/DTD/svg11.dtd">
<svg version="1.1" id="Layer_1" xmlns="http://www.w3.org/2000/svg" xmlns:xlink="http://www.w3.org/1999/xlink" x="0px" y="0px"
	 width="234px" height="50px" viewBox="0 0 234 50" enable-background="new 0 0 234 50" xml:space="preserve">
<rect fill="#FFFFFF" width="234" height="50"/>
<rect y="39" fill="#E6E8E8" width="234" height="11"/>
<g display="none">
	<circle display="inline" fill="#9B9B9B" cx="202" cy="18" r="3.849"/>
	<circle display="inline" fill="#9B9B9B" cx="190.75" cy="18" r="3.849"/>
	<circle display="inline" fill="#9B9B9B" cx="213.249" cy="18" r="3.849"/>
</g>
<g>
	<circle fill="#9B9B9B" cx="26" cy="45" r="2.698"/>
	<circle fill="#9B9B9B" cx="18.115" cy="45" r="2.698"/>
	<circle fill="#9B9B9B" cx="33.884" cy="45" r="2.698"/>
</g>
<g>
	<path fill="#777777" d="M191.154,13.006v1.332h-5.082V5.662h1.615v7.344H191.154z"/>
	<path fill="#777777" d="M200.275,10c0,0.636-0.105,1.225-0.316,1.768c-0.209,0.541-0.506,1.01-0.891,1.406
		c-0.383,0.396-0.846,0.705-1.385,0.928c-0.541,0.221-1.141,0.332-1.801,0.332c-0.656,0-1.254-0.111-1.793-0.332
		c-0.541-0.223-1.004-0.531-1.391-0.928c-0.385-0.396-0.684-0.865-0.896-1.406c-0.211-0.543-0.318-1.132-0.318-1.768
		c0-0.637,0.107-1.225,0.318-1.768c0.213-0.541,0.512-1.011,0.896-1.406c0.387-0.396,0.85-0.705,1.391-0.928
		c0.539-0.222,1.137-0.332,1.793-0.332c0.439,0,0.854,0.051,1.242,0.152s0.744,0.246,1.068,0.432
		c0.324,0.187,0.615,0.412,0.873,0.679c0.258,0.266,0.477,0.563,0.656,0.891c0.18,0.328,0.316,0.685,0.412,1.068
		C200.229,9.172,200.275,9.576,200.275,10z M198.625,10c0-0.477-0.064-0.903-0.191-1.281c-0.129-0.378-0.311-0.699-0.547-0.963
		s-0.523-0.466-0.861-0.605c-0.338-0.141-0.719-0.211-1.143-0.211s-0.805,0.07-1.143,0.211c-0.338,0.14-0.627,0.342-0.865,0.605
		c-0.236,0.264-0.42,0.585-0.549,0.963c-0.127,0.378-0.191,0.805-0.191,1.281s0.064,0.902,0.191,1.281
		c0.129,0.377,0.313,0.697,0.549,0.959c0.238,0.263,0.527,0.464,0.865,0.604c0.338,0.141,0.719,0.21,1.143,0.21
		s0.805-0.069,1.143-0.21c0.338-0.14,0.625-0.341,0.861-0.604c0.236-0.262,0.418-0.582,0.547-0.959
		C198.561,10.902,198.625,10.477,198.625,10z"/>
	<path fill="#777777" d="M208.85,9.988v3.51c-0.441,0.324-0.91,0.561-1.408,0.711s-1.029,0.225-1.598,0.225
		c-0.709,0-1.35-0.109-1.924-0.33c-0.574-0.22-1.064-0.525-1.469-0.918c-0.406-0.392-0.721-0.859-0.939-1.404
		c-0.221-0.543-0.33-1.137-0.33-1.781c0-0.652,0.105-1.25,0.318-1.794c0.211-0.544,0.512-1.013,0.902-1.404s0.863-0.696,1.418-0.912
		c0.557-0.216,1.182-0.323,1.873-0.323c0.352,0,0.682,0.027,0.986,0.084c0.307,0.056,0.59,0.133,0.852,0.23
		c0.264,0.098,0.502,0.217,0.719,0.357c0.215,0.14,0.414,0.293,0.594,0.461l-0.463,0.732c-0.072,0.116-0.166,0.188-0.281,0.213
		c-0.117,0.026-0.242-0.002-0.379-0.086c-0.131-0.076-0.264-0.152-0.395-0.229c-0.133-0.076-0.279-0.143-0.441-0.198
		s-0.344-0.103-0.547-0.138c-0.201-0.036-0.436-0.055-0.699-0.055c-0.428,0-0.814,0.072-1.16,0.217
		c-0.346,0.144-0.641,0.35-0.885,0.617c-0.244,0.269-0.432,0.59-0.564,0.967c-0.133,0.375-0.197,0.796-0.197,1.26
		c0,0.496,0.07,0.939,0.213,1.329c0.141,0.39,0.342,0.72,0.6,0.989c0.258,0.271,0.568,0.477,0.934,0.619
		c0.363,0.142,0.77,0.213,1.217,0.213c0.32,0,0.605-0.035,0.857-0.103s0.498-0.159,0.738-0.276v-1.572h-1.092
		c-0.104,0-0.186-0.028-0.242-0.086c-0.059-0.059-0.088-0.129-0.088-0.213V9.988H208.85z"/>
	<path fill="#777777" d="M218.684,10c0,0.636-0.105,1.225-0.316,1.768c-0.209,0.541-0.506,1.01-0.891,1.406
		c-0.383,0.396-0.846,0.705-1.385,0.928c-0.541,0.221-1.141,0.332-1.801,0.332c-0.656,0-1.254-0.111-1.793-0.332
		c-0.541-0.223-1.004-0.531-1.391-0.928c-0.385-0.396-0.684-0.865-0.896-1.406c-0.211-0.543-0.318-1.132-0.318-1.768
		c0-0.637,0.107-1.225,0.318-1.768c0.213-0.541,0.512-1.011,0.896-1.406c0.387-0.396,0.85-0.705,1.391-0.928
		c0.539-0.222,1.137-0.332,1.793-0.332c0.439,0,0.854,0.051,1.242,0.152s0.744,0.246,1.068,0.432
		c0.324,0.187,0.615,0.412,0.873,0.679c0.258,0.266,0.477,0.563,0.656,0.891c0.18,0.328,0.316,0.685,0.412,1.068
		C218.637,9.172,218.684,9.576,218.684,10z M217.033,10c0-0.477-0.064-0.903-0.191-1.281c-0.129-0.378-0.311-0.699-0.547-0.963
		s-0.523-0.466-0.861-0.605c-0.338-0.141-0.719-0.211-1.143-0.211s-0.805,0.07-1.143,0.211c-0.338,0.14-0.627,0.342-0.865,0.605
		c-0.236,0.264-0.42,0.585-0.549,0.963c-0.127,0.378-0.191,0.805-0.191,1.281s0.064,0.902,0.191,1.281
		c0.129,0.377,0.313,0.697,0.549,0.959c0.238,0.263,0.527,0.464,0.865,0.604c0.338,0.141,0.719,0.21,1.143,0.21
		s0.805-0.069,1.143-0.21c0.338-0.14,0.625-0.341,0.861-0.604c0.236-0.262,0.418-0.582,0.547-0.959
		C216.969,10.902,217.033,10.477,217.033,10z"/>
</g>
<rect y="39" fill="#9B9B9B" width="234" height="1"/>
<g>
	<path fill="#9B9B9B" d="M80,7.906C80,9.201,78.401,10,76.428,10H58.572C56.599,10,55,9.201,55,7.906V7.344
		C55,6.049,56.599,5,58.572,5h17.856C78.401,5,80,6.049,80,7.344V7.906z"/>
	<path fill="#9B9B9B" d="M80,15.906C80,17.201,78.401,18,76.428,18H58.572C56.599,18,55,17.201,55,15.906v-0.563
		C55,14.049,56.599,13,58.572,13h17.856C78.401,13,80,14.049,80,15.344V15.906z"/>
	<path fill="#9B9B9B" d="M80,24.906C80,26.201,78.401,27,76.428,27H58.572C56.599,27,55,26.201,55,24.906v-0.563
		C55,23.049,56.599,22,58.572,22h17.856C78.401,22,80,23.049,80,24.344V24.906z"/>
	<path fill="#9B9B9B" d="M80,33.906C80,35.201,78.401,36,76.428,36H58.572C56.599,36,55,35.201,55,33.906v-0.563
		C55,32.049,56.599,31,58.572,31h17.856C78.401,31,80,32.049,80,33.344V33.906z"/>
</g>
<path display="none" fill="#9B9B9B" d="M212,7.906c0,1.295-1.843,2.094-3.815,2.094h-17.856C188.355,10,187,9.201,187,7.906V7.344
	C187,6.049,188.355,5,190.328,5h17.856C210.157,5,212,6.049,212,7.344V7.906z"/>
<g>
	<path fill="#9B9B9B" d="M200,21.906c0,1.295-0.689,2.094-1.834,2.094h-10.357c-1.145,0-1.809-0.799-1.809-2.094v-0.563
		c0-1.294,0.664-2.344,1.809-2.344h10.357c1.145,0,1.834,1.049,1.834,2.344V21.906z"/>
	<path fill="#9B9B9B" d="M217,21.906c0,1.295-0.689,2.094-1.834,2.094h-10.357c-1.145,0-1.809-0.799-1.809-2.094v-0.563
		c0-1.294,0.664-2.344,1.809-2.344h10.357c1.145,0,1.834,1.049,1.834,2.344V21.906z"/>
</g>
<path fill="#9B9B9B" d="M219,45.313c0,1.476-1.843,2.688-3.815,2.688h-17.856c-1.973,0-3.328-1.212-3.328-2.688v-0.642
	c0-1.476,1.355-2.671,3.328-2.671h17.856c1.973,0,3.815,1.195,3.815,2.671V45.313z"/>
<g>
	<path fill="#9B9B9B" d="M120,7.906c0,1.294-1.6,2.094-3.572,2.094H98.572C96.599,10,95,9.201,95,7.906V7.344
		C95,6.049,96.599,5,98.572,5h17.856C118.4,5,120,6.049,120,7.344V7.906z"/>
	<path fill="#9B9B9B" d="M120,15.906c0,1.294-1.6,2.094-3.572,2.094H98.572C96.599,18,95,17.201,95,15.906v-0.563
		C95,14.049,96.599,13,98.572,13h17.856C118.4,13,120,14.049,120,15.344V15.906z"/>
	<path fill="#9B9B9B" d="M120,24.906c0,1.295-1.6,2.094-3.572,2.094H98.572C96.599,27,95,26.201,95,24.906v-0.563
		C95,23.049,96.599,22,98.572,22h17.856C118.4,22,120,23.049,120,24.344V24.906z"/>
	<path fill="#9B9B9B" d="M120,33.906c0,1.295-1.6,2.094-3.572,2.094H98.572C96.599,36,95,35.201,95,33.906v-0.563
		C95,32.049,96.599,31,98.572,31h17.856C118.4,31,120,32.049,120,33.344V33.906z"/>
</g>
<g>
	<path fill="#9B9B9B" d="M160,7.906c0,1.294-1.6,2.094-3.572,2.094h-17.855C136.6,10,135,9.201,135,7.906V7.344
		C135,6.049,136.6,5,138.572,5h17.855C158.4,5,160,6.049,160,7.344V7.906z"/>
	<path fill="#9B9B9B" d="M160,15.906c0,1.294-1.6,2.094-3.572,2.094h-17.855C136.6,18,135,17.201,135,15.906v-0.563
		c0-1.294,1.6-2.344,3.572-2.344h17.855C158.4,13,160,14.049,160,15.344V15.906z"/>
	<path fill="#9B9B9B" d="M160,24.906c0,1.295-1.6,2.094-3.572,2.094h-17.855C136.6,27,135,26.201,135,24.906v-0.563
		c0-1.294,1.6-2.344,3.572-2.344h17.855C158.4,22,160,23.049,160,24.344V24.906z"/>
	<path fill="#9B9B9B" d="M160,33.906c0,1.295-1.6,2.094-3.572,2.094h-17.855C136.6,36,135,35.201,135,33.906v-0.563
		c0-1.295,1.6-2.344,3.572-2.344h17.855C158.4,31,160,32.049,160,33.344V33.906z"/>
</g>
<g display="none">
	<path display="inline" fill="#9B9B9B" d="M212,7.906c0,1.294-1.6,2.094-3.572,2.094h-17.855C188.6,10,187,9.201,187,7.906V7.344
		C187,6.049,188.6,5,190.572,5h17.855C210.4,5,212,6.049,212,7.344V7.906z"/>
	<path display="inline" fill="#9B9B9B" d="M212,15.906c0,1.294-1.6,2.094-3.572,2.094h-17.855C188.6,18,187,17.201,187,15.906
		v-0.563c0-1.294,1.6-2.344,3.572-2.344h17.855C210.4,13,212,14.049,212,15.344V15.906z"/>
	<path display="inline" fill="#9B9B9B" d="M212,24.906c0,1.295-1.6,2.094-3.572,2.094h-17.855C188.6,27,187,26.201,187,24.906
		v-0.563c0-1.294,1.6-2.344,3.572-2.344h17.855C210.4,22,212,23.049,212,24.344V24.906z"/>
	<path display="inline" fill="#9B9B9B" d="M212,33.906c0,1.295-1.6,2.094-3.572,2.094h-17.855C188.6,36,187,35.201,187,33.906
		v-0.563c0-1.295,1.6-2.344,3.572-2.344h17.855C210.4,31,212,32.049,212,33.344V33.906z"/>
</g>
<g>
	<path fill="#9B9B9B" d="M40,7.906C40,9.201,38.4,10,36.428,10H18.572C16.6,10,15,9.201,15,7.906V7.344C15,6.049,16.6,5,18.572,5
		h17.855C38.4,5,40,6.049,40,7.344V7.906z"/>
	<path fill="#9B9B9B" d="M40,15.906C40,17.201,38.4,18,36.428,18H18.572C16.6,18,15,17.201,15,15.906v-0.563
		C15,14.049,16.6,13,18.572,13h17.855C38.4,13,40,14.049,40,15.344V15.906z"/>
	<path fill="#9B9B9B" d="M40,24.906C40,26.201,38.4,27,36.428,27H18.572C16.6,27,15,26.201,15,24.906v-0.563
		C15,23.049,16.6,22,18.572,22h17.855C38.4,22,40,23.049,40,24.344V24.906z"/>
	<path fill="#9B9B9B" d="M40,33.906C40,35.201,38.4,36,36.428,36H18.572C16.6,36,15,35.201,15,33.906v-0.563
		C15,32.049,16.6,31,18.572,31h17.855C38.4,31,40,32.049,40,33.344V33.906z"/>
</g>
</svg>
