<?xml version="1.0" encoding="utf-8"?>
<!-- Generator: Adobe Illustrator 16.0.0, SVG Export Plug-In . SVG Version: 6.00 Build 0)  -->
<!DOCTYPE svg PUBLIC "-//W3C//DTD SVG 1.1//EN" "http://www.w3.org/Graphics/SVG/1.1/DTD/svg11.dtd">
<svg version="1.1" id="Layer_1" xmlns="http://www.w3.org/2000/svg" xmlns:xlink="http://www.w3.org/1999/xlink" x="0px" y="0px"
	 width="234px" height="50px" viewBox="0 0 234 50" enable-background="new 0 0 234 50" xml:space="preserve">
<rect fill="#FFFFFF" width="234" height="50"/>
<rect fill="#9B9B9B" width="234" height="11"/>
<circle fill="#9B9B9B" cx="201" cy="23" r="6.5"/>
<circle display="none" fill="#9B9B9B" cx="181" cy="30" r="6.5"/>
<circle fill="#9B9B9B" cx="220" cy="23" r="6.5"/>
<path fill="#9B9B9B" d="M188,23.25c0,3.176-2.574,5.75-5.75,5.75h-89.5C89.574,29,87,26.426,87,23.25V22.75
	c0-3.176,2.574-5.75,5.75-5.75h89.5c3.176,0,5.75,2.575,5.75,5.75V23.25z"/>
<g>
	<path fill="#777777" d="M10.048,26.006v1.332H4.966v-8.676H6.58v7.344H10.048z"/>
	<path fill="#777777" d="M19.168,23c0,0.636-0.105,1.225-0.315,1.768c-0.21,0.541-0.507,1.01-0.891,1.406
		c-0.384,0.396-0.846,0.705-1.386,0.928c-0.54,0.221-1.14,0.332-1.8,0.332c-0.656,0-1.254-0.111-1.794-0.332
		c-0.54-0.223-1.003-0.531-1.389-0.928c-0.386-0.396-0.685-0.865-0.897-1.406c-0.212-0.543-0.318-1.132-0.318-1.768
		c0-0.637,0.106-1.225,0.318-1.768c0.212-0.541,0.511-1.011,0.897-1.407c0.386-0.396,0.849-0.705,1.389-0.927
		s1.138-0.333,1.794-0.333c0.44,0,0.854,0.051,1.242,0.153c0.388,0.102,0.744,0.246,1.068,0.432
		c0.324,0.186,0.615,0.412,0.873,0.678c0.258,0.266,0.477,0.563,0.657,0.891c0.18,0.328,0.317,0.685,0.411,1.068
		C19.121,22.172,19.168,22.576,19.168,23z M17.518,23c0-0.477-0.064-0.903-0.192-1.281s-0.31-0.699-0.546-0.963
		c-0.236-0.264-0.523-0.466-0.861-0.605c-0.338-0.141-0.719-0.21-1.143-0.21c-0.424,0-0.805,0.07-1.143,0.21
		c-0.338,0.14-0.626,0.342-0.864,0.605c-0.238,0.264-0.421,0.585-0.549,0.963S12.028,22.523,12.028,23s0.064,0.902,0.192,1.281
		c0.128,0.377,0.311,0.697,0.549,0.959c0.238,0.263,0.526,0.464,0.864,0.604c0.338,0.141,0.719,0.21,1.143,0.21
		c0.424,0,0.805-0.069,1.143-0.21c0.338-0.14,0.625-0.341,0.861-0.604c0.236-0.262,0.418-0.582,0.546-0.959
		C17.454,23.902,17.518,23.477,17.518,23z"/>
	<path fill="#777777" d="M27.742,22.988v3.51c-0.44,0.324-0.909,0.561-1.407,0.711s-1.031,0.225-1.599,0.225
		c-0.708,0-1.349-0.109-1.923-0.33c-0.574-0.22-1.064-0.525-1.47-0.918c-0.406-0.392-0.719-0.859-0.939-1.404
		c-0.22-0.543-0.33-1.137-0.33-1.781c0-0.652,0.106-1.25,0.318-1.794s0.513-1.013,0.903-1.404s0.863-0.696,1.419-0.912
		c0.556-0.216,1.18-0.324,1.872-0.324c0.352,0,0.681,0.028,0.987,0.084c0.306,0.056,0.59,0.133,0.852,0.231
		c0.262,0.098,0.501,0.217,0.717,0.357c0.216,0.14,0.414,0.294,0.594,0.462l-0.462,0.732c-0.072,0.116-0.166,0.188-0.282,0.213
		c-0.116,0.026-0.242-0.002-0.378-0.086c-0.132-0.076-0.264-0.152-0.396-0.229c-0.132-0.076-0.279-0.143-0.441-0.198
		c-0.162-0.056-0.344-0.102-0.546-0.138c-0.202-0.036-0.435-0.054-0.699-0.054c-0.428,0-0.815,0.072-1.161,0.216
		c-0.346,0.144-0.641,0.35-0.885,0.617c-0.244,0.269-0.432,0.59-0.564,0.967c-0.132,0.375-0.198,0.796-0.198,1.26
		c0,0.496,0.071,0.939,0.213,1.329s0.342,0.72,0.6,0.989c0.258,0.271,0.569,0.477,0.933,0.619c0.364,0.142,0.77,0.213,1.218,0.213
		c0.32,0,0.606-0.035,0.858-0.103s0.498-0.159,0.738-0.276v-1.572h-1.092c-0.104,0-0.185-0.028-0.243-0.086
		c-0.058-0.059-0.087-0.129-0.087-0.213v-0.912H27.742z"/>
	<path fill="#777777" d="M37.576,23c0,0.636-0.105,1.225-0.315,1.768c-0.21,0.541-0.507,1.01-0.891,1.406
		c-0.384,0.396-0.846,0.705-1.386,0.928c-0.54,0.221-1.14,0.332-1.8,0.332c-0.656,0-1.254-0.111-1.794-0.332
		c-0.54-0.223-1.003-0.531-1.389-0.928c-0.386-0.396-0.685-0.865-0.897-1.406c-0.212-0.543-0.318-1.132-0.318-1.768
		c0-0.637,0.106-1.225,0.318-1.768c0.212-0.541,0.511-1.011,0.897-1.407c0.386-0.396,0.849-0.705,1.389-0.927
		s1.138-0.333,1.794-0.333c0.44,0,0.854,0.051,1.242,0.153c0.388,0.102,0.744,0.246,1.068,0.432
		c0.324,0.186,0.615,0.412,0.873,0.678c0.258,0.266,0.477,0.563,0.657,0.891c0.18,0.328,0.317,0.685,0.411,1.068
		C37.529,22.172,37.576,22.576,37.576,23z M35.926,23c0-0.477-0.064-0.903-0.192-1.281s-0.31-0.699-0.546-0.963
		c-0.236-0.264-0.523-0.466-0.861-0.605c-0.338-0.141-0.719-0.21-1.143-0.21c-0.424,0-0.805,0.07-1.143,0.21
		c-0.338,0.14-0.626,0.342-0.864,0.605c-0.238,0.264-0.421,0.585-0.549,0.963S30.436,22.523,30.436,23s0.064,0.902,0.192,1.281
		c0.128,0.377,0.311,0.697,0.549,0.959c0.238,0.263,0.526,0.464,0.864,0.604c0.338,0.141,0.719,0.21,1.143,0.21
		c0.424,0,0.805-0.069,1.143-0.21c0.338-0.14,0.625-0.341,0.861-0.604c0.236-0.262,0.418-0.582,0.546-0.959
		C35.862,23.902,35.926,23.477,35.926,23z"/>
</g>
<rect y="34" fill="#9B9B9B" width="234" height="1"/>
<path fill="#9B9B9B" d="M93,43.25c0,1.519-1.231,2.75-2.75,2.75h-13.5C75.231,46,74,44.769,74,43.25v-0.5
	c0-1.519,1.231-2.75,2.75-2.75h13.5c1.519,0,2.75,1.231,2.75,2.75V43.25z"/>
<path fill="#9B9B9B" d="M121,43.25c0,1.519-1.231,2.75-2.75,2.75h-13.5c-1.519,0-2.75-1.231-2.75-2.75v-0.5
	c0-1.519,1.231-2.75,2.75-2.75h13.5c1.519,0,2.75,1.231,2.75,2.75V43.25z"/>
<path fill="#9B9B9B" d="M149,43.25c0,1.519-1.231,2.75-2.75,2.75h-13.5c-1.519,0-2.75-1.231-2.75-2.75v-0.5
	c0-1.519,1.231-2.75,2.75-2.75h13.5c1.519,0,2.75,1.231,2.75,2.75V43.25z"/>
</svg>
