<?xml version="1.0" encoding="utf-8"?>
<!-- Generator: Adobe Illustrator 16.0.0, SVG Export Plug-In . SVG Version: 6.00 Build 0)  -->
<!DOCTYPE svg PUBLIC "-//W3C//DTD SVG 1.1//EN" "http://www.w3.org/Graphics/SVG/1.1/DTD/svg11.dtd">
<svg version="1.1" id="Layer_1" xmlns="http://www.w3.org/2000/svg" xmlns:xlink="http://www.w3.org/1999/xlink" x="0px" y="0px"
	 width="234px" height="50px" viewBox="0 0 234 50" enable-background="new 0 0 234 50" xml:space="preserve">
<rect fill="#FFFFFF" width="234" height="50"/>
<rect fill="#9B9B9B" width="234" height="11"/>
<g display="none">
	<circle display="inline" fill="#9B9B9B" cx="201" cy="23" r="6.5"/>
	<circle display="inline" fill="#9B9B9B" cx="182" cy="23" r="6.5"/>
	<circle display="inline" fill="#9B9B9B" cx="220" cy="23" r="6.5"/>
</g>
<path display="none" fill="#9B9B9B" d="M159,23.25c0,3.176-2.574,5.75-5.75,5.75h-89.5C60.574,29,58,26.426,58,23.25V22.75
	c0-3.176,2.574-5.75,5.75-5.75h89.5c3.176,0,5.75,2.575,5.75,5.75V23.25z"/>
<g>
	<path fill="#777777" d="M105.777,26.006v1.332h-5.082v-8.676h1.614v7.344H105.777z"/>
	<path fill="#777777" d="M114.897,23c0,0.636-0.105,1.225-0.315,1.768c-0.21,0.541-0.507,1.01-0.891,1.406
		c-0.384,0.396-0.846,0.705-1.386,0.928c-0.54,0.221-1.14,0.332-1.8,0.332c-0.656,0-1.254-0.111-1.794-0.332
		c-0.54-0.223-1.003-0.531-1.389-0.928c-0.386-0.396-0.685-0.865-0.897-1.406c-0.212-0.543-0.318-1.132-0.318-1.768
		c0-0.637,0.106-1.225,0.318-1.768c0.212-0.541,0.511-1.011,0.897-1.406c0.386-0.396,0.849-0.705,1.389-0.928
		c0.54-0.222,1.138-0.332,1.794-0.332c0.44,0,0.854,0.051,1.242,0.152c0.388,0.102,0.744,0.246,1.068,0.432
		c0.324,0.187,0.615,0.412,0.873,0.679c0.258,0.266,0.477,0.563,0.657,0.891c0.18,0.328,0.317,0.685,0.411,1.068
		C114.85,22.172,114.897,22.576,114.897,23z M113.247,23c0-0.477-0.064-0.903-0.192-1.281s-0.31-0.699-0.546-0.963
		c-0.236-0.264-0.523-0.466-0.861-0.605c-0.338-0.141-0.719-0.211-1.143-0.211c-0.424,0-0.805,0.07-1.143,0.211
		c-0.338,0.14-0.626,0.342-0.864,0.605c-0.238,0.264-0.421,0.585-0.549,0.963s-0.192,0.805-0.192,1.281s0.064,0.902,0.192,1.281
		c0.128,0.377,0.311,0.697,0.549,0.959c0.238,0.263,0.526,0.464,0.864,0.604c0.338,0.141,0.719,0.21,1.143,0.21
		c0.424,0,0.805-0.069,1.143-0.21c0.338-0.14,0.625-0.341,0.861-0.604c0.236-0.262,0.418-0.582,0.546-0.959
		C113.183,23.902,113.247,23.477,113.247,23z"/>
	<path fill="#777777" d="M123.471,22.988v3.51c-0.439,0.324-0.908,0.561-1.406,0.711s-1.031,0.225-1.6,0.225
		c-0.709,0-1.35-0.109-1.923-0.33c-0.574-0.22-1.064-0.525-1.47-0.918c-0.406-0.392-0.719-0.859-0.939-1.404
		c-0.22-0.543-0.33-1.137-0.33-1.781c0-0.652,0.106-1.25,0.318-1.794s0.513-1.013,0.903-1.404s0.863-0.696,1.419-0.912
		c0.555-0.216,1.18-0.323,1.871-0.323c0.352,0,0.682,0.027,0.988,0.084c0.305,0.056,0.59,0.133,0.852,0.23s0.5,0.217,0.717,0.357
		c0.215,0.14,0.414,0.293,0.594,0.461l-0.463,0.732c-0.07,0.116-0.166,0.188-0.281,0.213c-0.115,0.026-0.242-0.002-0.377-0.086
		c-0.133-0.076-0.266-0.152-0.396-0.229c-0.133-0.076-0.279-0.143-0.441-0.198s-0.344-0.103-0.547-0.138
		c-0.201-0.036-0.434-0.055-0.697-0.055c-0.43,0-0.816,0.072-1.162,0.217c-0.346,0.144-0.641,0.35-0.885,0.617
		c-0.244,0.269-0.432,0.59-0.564,0.967c-0.132,0.375-0.198,0.796-0.198,1.26c0,0.496,0.071,0.939,0.213,1.329s0.342,0.72,0.6,0.989
		c0.258,0.271,0.568,0.477,0.934,0.619c0.363,0.142,0.77,0.213,1.217,0.213c0.32,0,0.607-0.035,0.859-0.103s0.498-0.159,0.738-0.276
		v-1.572h-1.094c-0.104,0-0.184-0.028-0.242-0.086c-0.059-0.059-0.088-0.129-0.088-0.213v-0.912H123.471z"/>
	<path fill="#777777" d="M133.305,23c0,0.636-0.105,1.225-0.314,1.768c-0.211,0.541-0.508,1.01-0.891,1.406
		c-0.385,0.396-0.848,0.705-1.387,0.928c-0.541,0.221-1.141,0.332-1.801,0.332c-0.656,0-1.254-0.111-1.793-0.332
		c-0.541-0.223-1.004-0.531-1.389-0.928c-0.387-0.396-0.686-0.865-0.898-1.406c-0.211-0.543-0.316-1.132-0.316-1.768
		c0-0.637,0.105-1.225,0.316-1.768c0.213-0.541,0.512-1.011,0.898-1.406c0.385-0.396,0.848-0.705,1.389-0.928
		c0.539-0.222,1.137-0.332,1.793-0.332c0.441,0,0.855,0.051,1.242,0.152c0.389,0.102,0.744,0.246,1.068,0.432
		c0.324,0.187,0.615,0.412,0.873,0.679c0.258,0.266,0.477,0.563,0.656,0.891c0.182,0.328,0.318,0.685,0.412,1.068
		S133.305,22.576,133.305,23z M131.654,23c0-0.477-0.064-0.903-0.191-1.281c-0.129-0.378-0.311-0.699-0.547-0.963
		s-0.521-0.466-0.859-0.605c-0.34-0.141-0.721-0.211-1.145-0.211s-0.805,0.07-1.143,0.211c-0.338,0.14-0.625,0.342-0.863,0.605
		s-0.422,0.585-0.549,0.963c-0.129,0.378-0.193,0.805-0.193,1.281s0.064,0.902,0.193,1.281c0.127,0.377,0.311,0.697,0.549,0.959
		c0.238,0.263,0.525,0.464,0.863,0.604c0.338,0.141,0.719,0.21,1.143,0.21s0.805-0.069,1.145-0.21
		c0.338-0.14,0.623-0.341,0.859-0.604c0.236-0.262,0.418-0.582,0.547-0.959C131.59,23.902,131.654,23.477,131.654,23z"/>
</g>
<rect y="34" fill="#9B9B9B" width="234" height="1"/>
<g>
	<path fill="#9B9B9B" d="M115,42.25c0,1.519-1.231,2.75-2.75,2.75h-13.5C97.231,45,96,43.769,96,42.25v-0.5
		c0-1.519,1.231-2.75,2.75-2.75h13.5c1.519,0,2.75,1.231,2.75,2.75V42.25z"/>
	<path fill="#9B9B9B" d="M89,42.25c0,1.519-1.231,2.75-2.75,2.75h-13.5C71.231,45,70,43.769,70,42.25v-0.5
		c0-1.519,1.231-2.75,2.75-2.75h13.5c1.519,0,2.75,1.231,2.75,2.75V42.25z"/>
	<path fill="#9B9B9B" d="M139,42.25c0,1.519-1.231,2.75-2.75,2.75h-13.5c-1.519,0-2.75-1.231-2.75-2.75v-0.5
		c0-1.519,1.231-2.75,2.75-2.75h13.5c1.519,0,2.75,1.231,2.75,2.75V42.25z"/>
	<path fill="#9B9B9B" d="M164,42.25c0,1.519-1.231,2.75-2.75,2.75h-13.5c-1.519,0-2.75-1.231-2.75-2.75v-0.5
		c0-1.519,1.231-2.75,2.75-2.75h13.5c1.519,0,2.75,1.231,2.75,2.75V42.25z"/>
</g>
</svg>
